<?xml version="1.0" encoding="utf-8"?>
<!-- Generator: Adobe Illustrator 23.0.2, SVG Export Plug-In . SVG Version: 6.00 Build 0)  -->
<svg version="1.1" id="Layer_1" xmlns="http://www.w3.org/2000/svg" xmlns:xlink="http://www.w3.org/1999/xlink" x="0px" y="0px"
	 viewBox="0 0 128 160" style="enable-background:new 0 0 128 160;" xml:space="preserve">
<style type="text/css">
	.st0{fill:#FFFFFF;}
</style>
<g>
	<g>
		<g>
			<path class="st0" d="M68.15,125H5.86c-1.1,0-2-0.9-2-2s0.9-2,2-2h62.3c1.1,0,2,0.9,2,2S69.26,125,68.15,125z"/>
			<g>
				<path class="st0" d="M95.21,50.18c-2.62,0-5.24-0.97-7.23-2.92l-21.7-21.21c-1.95-1.9-3.02-4.43-3.02-7.13s1.07-5.23,3.02-7.13
					l6-5.86c3.99-3.9,10.47-3.9,14.46,0l21.7,21.21c1.95,1.9,3.02,4.43,3.02,7.13s-1.07,5.23-3.02,7.13l0,0l-6,5.86
					C100.44,49.21,97.82,50.18,95.21,50.18z M79.5,7c-1.61,0-3.21,0.6-4.44,1.79l-6,5.86c-1.17,1.14-1.81,2.66-1.81,4.27
					s0.64,3.13,1.81,4.27l21.7,21.21c2.44,2.39,6.43,2.39,8.87,0l6-5.86c1.17-1.14,1.81-2.66,1.81-4.27s-0.64-3.13-1.81-4.27
					L83.94,8.79C82.71,7.6,81.11,7,79.5,7z M107.04,39.97h0.01H107.04z"/>
				<path class="st0" d="M49.08,95.25c-2.62,0-5.24-0.97-7.23-2.92l-21.7-21.21c-1.95-1.9-3.02-4.43-3.02-7.13s1.07-5.23,3.02-7.13
					l6-5.86c3.99-3.9,10.48-3.9,14.46,0l21.7,21.21c1.95,1.9,3.02,4.44,3.02,7.13s-1.07,5.23-3.02,7.13l-6,5.86
					C54.31,94.28,51.69,95.25,49.08,95.25z M33.37,52.07c-1.6,0-3.21,0.6-4.44,1.79l-6,5.86c-1.17,1.14-1.81,2.66-1.81,4.27
					s0.65,3.13,1.81,4.27l21.7,21.21c2.45,2.39,6.43,2.39,8.87,0l6-5.86l0,0c1.17-1.14,1.81-2.66,1.81-4.27s-0.65-3.13-1.81-4.27
					l-21.7-21.21C36.58,52.67,34.98,52.07,33.37,52.07z"/>
			</g>
		</g>
		<path class="st0" d="M69.01,114.71H5c-1.1,0-2-0.9-2-2V96.43C3,91.78,6.78,88,11.44,88h30.88c0.52,0,1.02,0.2,1.4,0.57l0.93,0.9
			c0.79,0.77,0.81,2.04,0.03,2.83c-0.77,0.79-2.04,0.81-2.83,0.03L41.5,92H11.44C8.99,92,7,93.99,7,96.43v14.28h60.01V96.43
			c0-2.45-1.99-4.44-4.44-4.44h-5.92l-0.34,0.34c-0.79,0.77-2.06,0.76-2.83-0.03c-0.77-0.79-0.76-2.06,0.03-2.83l0.93-0.9
			c0.37-0.36,0.88-0.57,1.4-0.57h6.74c4.65,0,8.44,3.79,8.44,8.44v16.28C71.01,113.81,70.12,114.71,69.01,114.71z"/>
		<path class="st0" d="M61.15,75.9c-0.55,0-1.08-0.23-1.46-0.64l-0.12-0.13c-0.79-0.77-0.84-2.06-0.08-2.86
			c0.12-0.13,0.26-0.24,0.4-0.33C67.11,61,76.44,51.88,87.64,44.82c0.08-0.14,0.18-0.27,0.3-0.39c0.77-0.79,2.04-0.81,2.83-0.03
			l0.21,0.18c0.5,0.45,0.74,1.12,0.64,1.79c-0.1,0.67-0.54,1.24-1.15,1.51l-0.65,0.3c-10.73,6.74-19.66,15.47-26.56,25.94l-0.3,0.64
			c-0.28,0.6-0.85,1.01-1.5,1.11C61.35,75.9,61.25,75.9,61.15,75.9z"/>
		<path class="st0" d="M39.2,54.44c-0.51,0-1.01-0.19-1.4-0.57c-0.06-0.06-0.12-0.1-0.18-0.16l-0.11-0.09
			c-0.51-0.44-0.77-1.12-0.67-1.79s0.52-1.25,1.13-1.54l1.8-0.84c10.06-6.32,18.43-14.5,24.9-24.32l0.86-1.75
			c0.29-0.6,0.86-1.01,1.52-1.1c0.66-0.09,1.32,0.15,1.76,0.64l0.09,0.1c0.06,0.06,0.11,0.13,0.17,0.18
			c0.79,0.77,0.81,2.04,0.03,2.83c-0.19,0.19-0.4,0.33-0.63,0.44L68.21,27c-0.04,0.08-0.08,0.15-0.13,0.22
			C61.27,37.6,52.42,46.24,41.79,52.9c-0.07,0.04-0.14,0.08-0.22,0.12l-0.56,0.26c-0.09,0.2-0.22,0.39-0.39,0.56
			C40.24,54.24,39.72,54.44,39.2,54.44z"/>
		<path class="st0" d="M115.63,108.62c-2.39,0-4.77-0.86-6.58-2.57L67.61,64.74c-0.78-0.78-0.78-2.05,0-2.83
			c0.78-0.78,2.04-0.78,2.83,0l41.4,41.27c2.08,1.96,5.52,1.96,7.63-0.04c0.99-0.93,1.53-2.17,1.53-3.47c0-1.31-0.54-2.54-1.53-3.47
			l-41.7-41.32c-0.78-0.78-0.79-2.04-0.01-2.83c0.78-0.78,2.04-0.79,2.83-0.01l41.66,41.29c1.76,1.66,2.75,3.93,2.75,6.35
			c0,2.42-0.99,4.68-2.78,6.38C120.4,107.76,118.02,108.62,115.63,108.62z"/>
	</g>
</g>
</svg>
