<?xml version="1.0" encoding="utf-8"?>
<!-- Generator: Adobe Illustrator 23.0.2, SVG Export Plug-In . SVG Version: 6.00 Build 0)  -->
<svg version="1.1" id="Layer_1" xmlns="http://www.w3.org/2000/svg" xmlns:xlink="http://www.w3.org/1999/xlink" x="0px" y="0px"
	 viewBox="0 0 300 300" style="enable-background:new 0 0 300 300;" xml:space="preserve">
<style type="text/css">
	.st0{fill:url(#SVGID_1_);}
</style>
<g transform="matrix(3.6999999999999993,0,0,3.6999999999999993,111.64914129972459,124.48849481344223)">
	<path d="M8.5,8L8.5,8c0.1,0.2,0.1,0.3,0.1,0.5l0,0l0,0c0,0.2-0.1,0.3-0.2,0.5l0,0l0,0C8.3,9,8.2,9.1,7.9,9.1l0,0l0,0
		C7.7,9.1,7.5,9,7.3,8.7l0,0L4.9,4.9H4.7H2.9v3.5l0,0c0,0.2-0.1,0.4-0.2,0.5l0,0l0,0C2.5,9,2.3,9.1,2.1,9.1l0,0l0,0
		C1.9,9.1,1.8,9,1.6,8.9l0,0l0,0C1.5,8.7,1.4,8.6,1.4,8.4l0,0v-9.5l0,0c0-0.2,0.1-0.4,0.2-0.5l0,0l0,0c0.1-0.1,0.3-0.2,0.5-0.2l0,0
		h2.5l0,0c0.7,0,1.3,0.1,1.8,0.4l0,0l0,0c0.5,0.3,1,0.7,1.3,1.2l0,0l0,0c0.3,0.5,0.4,1.1,0.4,1.8l0,0l0,0c0,0.7-0.2,1.3-0.5,1.8l0,0
		l0,0C7.4,3.9,6.9,4.3,6.4,4.5l0,0L8.5,8z M2.9,3.5h1.8l0,0c0.6,0,1.2-0.2,1.6-0.5l0,0l0,0c0.4-0.4,0.6-0.8,0.6-1.4l0,0l0,0
		c0-0.6-0.2-1.1-0.6-1.5l0,0l0,0C5.8-0.3,5.3-0.5,4.7-0.5l0,0H2.9V3.5z M13.6,1.4L13.6,1.4c0.7,0,1.4,0.2,1.9,0.5l0,0l0,0
		c0.6,0.3,1.1,0.8,1.4,1.4l0,0l0,0c0.3,0.6,0.5,1.3,0.5,2l0,0v3.1l0,0c0,0.2-0.1,0.4-0.2,0.5l0,0l0,0c-0.1,0.1-0.3,0.2-0.5,0.2l0,0
		l0,0c-0.2,0-0.4-0.1-0.5-0.2l0,0l0,0C16.1,8.8,16,8.6,16,8.4l0,0V7.9l0,0c-0.3,0.4-0.7,0.7-1.2,0.9l0,0l0,0c-0.5,0.2-1,0.3-1.5,0.3
		l0,0l0,0c-0.7,0-1.3-0.2-1.8-0.5l0,0l0,0c-0.5-0.3-1-0.8-1.3-1.4l0,0l0,0C9.9,6.7,9.7,6,9.7,5.3l0,0l0,0c0-0.7,0.2-1.4,0.5-2l0,0
		l0,0c0.3-0.6,0.8-1.1,1.4-1.4l0,0l0,0C12.2,1.5,12.9,1.4,13.6,1.4L13.6,1.4z M13.6,7.9L13.6,7.9c0.5,0,0.9-0.1,1.3-0.3l0,0l0,0
		c0.4-0.2,0.7-0.5,0.9-0.9l0,0l0,0c0.2-0.4,0.3-0.8,0.3-1.3l0,0l0,0c0-0.5-0.1-0.9-0.3-1.3l0,0l0,0c-0.2-0.4-0.5-0.7-0.9-1l0,0l0,0
		c-0.4-0.2-0.8-0.3-1.3-0.3l0,0l0,0c-0.5,0-0.9,0.1-1.3,0.3l0,0l0,0c-0.4,0.2-0.7,0.6-0.9,1l0,0l0,0c-0.2,0.4-0.3,0.8-0.3,1.3l0,0
		l0,0c0,0.5,0.1,0.9,0.3,1.3l0,0l0,0c0.2,0.4,0.5,0.7,0.9,0.9l0,0l0,0C12.7,7.8,13.1,7.9,13.6,7.9L13.6,7.9z M24.6,7.8L24.6,7.8
		c0.4,0,0.7,0.2,0.7,0.7l0,0l0,0c0,0.4-0.2,0.6-0.7,0.6l0,0h-4.8l0,0c-0.4,0-0.7-0.2-0.7-0.6l0,0l0,0c0-0.2,0-0.3,0.1-0.5l0,0l4-5.2
		h-3.6l0,0c-0.4,0-0.7-0.2-0.7-0.7l0,0l0,0c0-0.4,0.2-0.7,0.7-0.7l0,0h4.8l0,0c0.4,0,0.7,0.2,0.7,0.7l0,0l0,0c0,0.2,0,0.3-0.1,0.5
		l0,0l-4,5.2H24.6z M30.6,1.4L30.6,1.4c0.7,0,1.4,0.2,2,0.5l0,0l0,0c0.6,0.3,1,0.8,1.4,1.4l0,0l0,0c0.3,0.6,0.5,1.3,0.5,2l0,0l0,0
		c0,0.7-0.2,1.4-0.5,2l0,0l0,0c-0.3,0.6-0.8,1.1-1.4,1.4l0,0l0,0c-0.6,0.3-1.3,0.5-2,0.5l0,0l0,0c-0.7,0-1.4-0.2-2-0.5l0,0l0,0
		c-0.6-0.3-1-0.8-1.4-1.4l0,0l0,0c-0.3-0.6-0.5-1.3-0.5-2l0,0l0,0c0-0.8,0.2-1.4,0.5-2l0,0l0,0c0.3-0.6,0.8-1.1,1.4-1.4l0,0l0,0
		C29.2,1.5,29.8,1.4,30.6,1.4L30.6,1.4z M30.6,2.6L30.6,2.6c-0.5,0-0.9,0.1-1.3,0.3l0,0l0,0c-0.4,0.2-0.7,0.5-0.9,0.9l0,0l0,0
		c-0.2,0.4-0.3,0.9-0.3,1.4l0,0l0,0c0,0.5,0.1,1,0.3,1.3l0,0l0,0c0.2,0.4,0.5,0.7,0.9,0.9l0,0l0,0c0.4,0.2,0.8,0.3,1.3,0.3l0,0l0,0
		c0.5,0,0.9-0.1,1.3-0.3l0,0l0,0c0.4-0.2,0.7-0.5,0.9-0.9l0,0l0,0c0.2-0.4,0.3-0.8,0.3-1.3l0,0l0,0c0-0.5-0.1-1-0.3-1.4l0,0l0,0
		c-0.2-0.4-0.5-0.7-0.9-0.9l0,0l0,0C31.5,2.8,31.1,2.6,30.6,2.6L30.6,2.6z M40.3,1.3L40.3,1.3c0.5,0,0.9,0.1,1.2,0.2l0,0l0,0
		c0.3,0.1,0.4,0.3,0.4,0.6l0,0l0,0c0,0.1,0,0.1,0,0.1l0,0l0,0c-0.1,0.3-0.3,0.4-0.6,0.4l0,0l0,0c0,0-0.1,0-0.2,0l0,0l0,0
		c-0.4-0.1-0.7-0.1-0.9-0.1l0,0l0,0c-0.7,0-1.2,0.2-1.6,0.5l0,0l0,0C38.2,3.4,38,3.8,38,4.3l0,0v4.1l0,0c0,0.2-0.1,0.4-0.2,0.5l0,0
		l0,0c-0.1,0.1-0.3,0.2-0.5,0.2l0,0l0,0c-0.2,0-0.4-0.1-0.5-0.2l0,0l0,0c-0.1-0.1-0.2-0.3-0.2-0.5l0,0V2.1l0,0
		c0-0.2,0.1-0.4,0.2-0.5l0,0l0,0c0.1-0.1,0.3-0.2,0.5-0.2l0,0l0,0c0.5,0,0.7,0.2,0.7,0.7l0,0v0.3l0,0c0.3-0.3,0.6-0.6,1-0.8l0,0l0,0
		C39.4,1.4,39.9,1.3,40.3,1.3L40.3,1.3z"/>
</g>
<g transform="matrix(0.24099451749619716,0,0,0.24099451749619716,31.98678390219738,113.25906226107831)">
	
		<linearGradient id="SVGID_1_" gradientUnits="userSpaceOnUse" x1="-759.0599" y1="1789.1493" x2="-758.0599" y2="1789.1493" gradientTransform="matrix(52.1202 25.7774 24.3041 -55.2798 -3915.7412 118501.9844)">
		<stop  offset="0" style="stop-color:#006678"/>
		<stop  offset="1" style="stop-color:#4FA8FF"/>
	</linearGradient>
	<path class="st0" d="M40.7,59.3c-6,0-10.8,4.9-10.8,10.8v65.1c0,6,4.9,10.8,10.8,10.8c0,0,0,0,0,0c6,0,10.8-4.9,10.8-10.8
		c0,0,0,0,0,0V70.1C51.6,64.1,46.7,59.3,40.7,59.3z M76.9,12.3c-6,0-10.8,4.9-10.8,10.8c0,0,0,0,0,0v159.1c0,6,4.9,10.8,10.8,10.8
		c0,0,0,0,0,0c6,0,10.8-4.9,10.8-10.8c0,0,0,0,0,0V23.1C87.7,17.1,82.9,12.3,76.9,12.3z M113-23.9c-6,0-10.8,4.9-10.8,10.8v0v231.4
		c0,6,4.9,10.8,10.8,10.8c6,0,10.8-4.9,10.8-10.8V-13C123.9-19,119-23.9,113-23.9z M149.2,39.4c-6,0-10.8,4.9-10.8,10.8v104.9
		c0,6,4.9,10.8,10.8,10.8s10.8-4.9,10.8-10.8V50.2C160,44.2,155.2,39.4,149.2,39.4z M185.3-23.9c-6,0-10.8,4.9-10.8,10.8v231.4
		c0,6,4.9,10.8,10.8,10.8c6,0,10.8-4.9,10.8-10.8V-13C196.2-19,191.3-23.9,185.3-23.9C185.3-23.9,185.3-23.9,185.3-23.9z
		 M221.5,30.3c-6,0-10.8,4.9-10.8,10.8v122.9c-0.1,6,4.6,11,10.6,11.1c6,0.1,11-4.6,11.1-10.6c0-0.2,0-0.3,0-0.5V41.2
		C232.3,35.2,227.5,30.4,221.5,30.3z M257.7,61.1c-6,0-10.8,4.9-10.8,10.8v61.5c0.1,6,5,10.8,11,10.7c5.9-0.1,10.6-4.8,10.7-10.7
		V71.9C268.5,65.9,263.6,61.1,257.7,61.1z"/>
</g>
</svg>
